<?xml version="1.0" standalone="no"?>
<!DOCTYPE svg PUBLIC "-//W3C//DTD SVG 20010904//EN"
 "http://www.w3.org/TR/2001/REC-SVG-20010904/DTD/svg10.dtd">
<svg version="1.0" xmlns="http://www.w3.org/2000/svg"
 width="591.000000pt" height="591.000000pt" viewBox="0 0 591.000000 591.000000"
 preserveAspectRatio="xMidYMid meet">
<metadata>
Created by potrace 1.14, written by Peter Selinger 2001-2017
</metadata>
<g transform="translate(0.000000,591.000000) scale(0.100000,-0.100000)"
fill="#000000" stroke="none">
<path d="M0 2955 l0 -2955 2955 0 2955 0 0 2955 0 2955 -2955 0 -2955 0 0
-2955z m769 1253 c33 -101 157 -482 276 -848 358 -1100 333 -1030 360 -1030
28 0 -13 -119 434 1274 138 428 252 780 254 782 2 3 130 3 284 2 l279 -3 -465
-1380 -466 -1380 -330 -3 -330 -2 -464 1372 c-255 755 -466 1379 -469 1386 -3
9 58 12 286 12 l290 0 61 -182z m3874 -268 l98 -24 -7 -40 c-25 -152 -109
-274 -248 -362 -59 -37 -60 -62 -5 -121 142 -154 171 -462 63 -675 -84 -167
-259 -300 -461 -352 -95 -25 -267 -39 -381 -32 -126 8 -170 -2 -211 -49 -41
-47 -44 -118 -6 -163 51 -61 58 -62 545 -82 280 -12 383 -30 504 -89 196 -95
288 -258 287 -510 -1 -386 -257 -622 -746 -686 -151 -20 -458 -20 -607 0 -258
34 -427 102 -544 219 -108 108 -153 228 -140 368 18 192 134 310 364 368 55
14 55 38 1 76 -108 75 -166 193 -157 322 10 139 95 236 259 295 38 14 65 29
67 39 2 11 -23 36 -70 70 -186 138 -267 301 -268 535 0 313 167 549 460 647
242 80 563 72 742 -20 15 -8 29 -14 31 -14 15 0 81 163 96 236 11 54 24 92 35
99 17 13 22 12 299 -55z m929 -1733 c114 -53 173 -149 173 -282 0 -130 -55
-223 -169 -283 -47 -25 -60 -27 -166 -27 -127 0 -161 11 -235 77 -115 101
-127 314 -25 431 78 88 157 119 287 113 60 -3 95 -10 135 -29z"/>
<path d="M3655 3355 c-67 -27 -115 -74 -149 -145 -18 -38 -21 -63 -21 -170 0
-117 2 -129 28 -182 51 -103 146 -158 276 -158 180 0 294 94 321 264 21 135
-18 277 -96 346 -82 72 -244 92 -359 45z"/>
<path d="M3442 1592 c-105 -34 -154 -98 -153 -203 0 -74 31 -132 93 -178 96
-71 231 -97 467 -88 207 7 308 37 386 114 83 84 88 230 10 291 -54 42 -116 52
-435 67 -168 8 -307 15 -310 14 -3 0 -29 -8 -58 -17z"/>
</g>
</svg>
